# Blender v2.69 (sub 0) OBJ File: 'Tree-1.blend'
# www.blender.org
mtllib Tree-1.mtl
o Tree
v 0.000000 0.000000 1.000000
v 0.707107 0.000000 0.707107
v -0.707106 2.000000 0.707108
v 1.000000 0.000000 0.000000
v -1.000000 2.000000 0.000001
v 0.707107 0.000000 -0.707107
v -0.707107 2.000000 -0.707106
v -0.000000 0.000000 -1.000000
v -0.000000 2.000000 -1.000000
v -0.707107 0.000000 -0.707106
v 0.707107 2.000000 -0.707107
v -1.000000 0.000000 0.000001
v 1.000000 2.000000 0.000000
v -0.707106 0.000000 0.707108
v 0.707107 2.000000 0.707107
v 0.000000 2.000000 1.000000
v -1.414212 2.500000 1.414215
v -2.000000 2.500000 0.000002
v -1.414214 2.500000 -1.414213
v -0.000001 2.500000 -2.000000
v 1.414214 2.500000 -1.414214
v 2.000000 2.500000 -0.000000
v 1.414214 2.500000 1.414213
v -0.000000 2.500000 2.000000
v -1.414212 2.800000 1.414215
v -2.000000 2.800000 0.000002
v -1.414214 2.800000 -1.414213
v -0.000001 2.800000 -2.000000
v 1.414214 2.800000 -1.414214
v 2.000000 2.800000 -0.000000
v 1.414214 2.800000 1.414213
v -0.000000 2.800000 2.000000
v -0.565685 3.000000 0.565686
v -0.800000 3.000000 0.000001
v -0.565686 3.000000 -0.565685
v -0.000000 3.000000 -0.800000
v 0.565686 3.000000 -0.565685
v 0.800000 3.000000 0.000000
v 0.565686 3.000000 0.565686
v 0.000000 3.000000 0.800000
v -0.565685 3.100000 0.565686
v -0.800000 3.100000 0.000001
v -0.565686 3.100000 -0.565685
v -0.000000 3.100000 -0.800000
v 0.565686 3.100000 -0.565685
v 0.800000 3.100000 0.000000
v 0.565686 3.100000 0.565686
v 0.000000 3.100000 0.800000
v -1.131369 3.099999 1.131372
v -1.600000 3.099999 0.000001
v -1.131371 3.099999 -1.131370
v -0.000001 3.099999 -1.600000
v 1.131371 3.099999 -1.131371
v 1.600000 3.099999 -0.000000
v 1.131371 3.099999 1.131371
v -0.000000 3.099999 1.600000
v -1.131369 3.399999 1.131372
v -1.600000 3.399999 0.000001
v -1.131371 3.399999 -1.131370
v -0.000001 3.399999 -1.600000
v 1.131371 3.399999 -1.131371
v 1.600000 3.399999 -0.000000
v 1.131371 3.399999 1.131371
v -0.000000 3.399999 1.600000
v -0.791959 3.799999 0.791961
v -1.120000 3.799999 0.000001
v -0.791960 3.799999 -0.791959
v -0.000000 3.799999 -1.120000
v 0.791960 3.799999 -0.791960
v 1.120000 3.799999 0.000000
v 0.791960 3.799999 0.791960
v 0.000000 3.799999 1.120000
v -0.554371 3.799999 0.554372
v -0.784000 3.799999 0.000001
v -0.554372 3.799999 -0.554371
v -0.000000 3.799999 -0.784000
v 0.554372 3.799999 -0.554372
v 0.784000 3.799999 0.000000
v 0.554372 3.799999 0.554372
v 0.000000 3.799999 0.784000
v -0.554371 4.199999 0.554372
v -0.784000 4.199999 0.000001
v -0.554372 4.199999 -0.554371
v -0.000000 4.199999 -0.784000
v 0.554372 4.199999 -0.554372
v 0.784000 4.199999 0.000000
v 0.554372 4.199999 0.554372
v 0.000000 4.199999 0.784000
v -0.665245 4.199999 0.665247
v -0.940800 4.199999 0.000001
v -0.665246 4.199999 -0.665246
v -0.000000 4.199999 -0.940800
v 0.665246 4.199999 -0.665246
v 0.940800 4.199999 0.000000
v 0.665246 4.199999 0.665246
v 0.000000 4.199999 0.940800
v -0.332623 4.699999 0.332624
v -0.470400 4.699999 0.000001
v -0.332623 4.699999 -0.332623
v -0.000000 4.699999 -0.470400
v 0.332623 4.699999 -0.332623
v 0.470400 4.699999 0.000000
v 0.332623 4.699999 0.332623
v 0.000000 4.699999 0.470400
v -0.033262 5.399999 0.033263
v -0.047040 5.399999 0.000000
v -0.033262 5.399999 -0.033262
v 0.000000 5.399999 -0.047040
v 0.033262 5.399999 -0.033262
v 0.047040 5.399999 0.000000
v 0.033262 5.399999 0.033263
v 0.000000 5.399999 0.047040
vt 0.579841 0.705042
vt 0.662655 0.705042
vt 0.579841 0.921445
vt 0.497027 0.705042
vt 0.497027 0.921445
vt 0.414213 0.705042
vt 0.414213 0.921445
vt 0.331399 0.705042
vt 0.331399 0.921445
vt 0.248585 0.705041
vt 0.248585 0.921445
vt 0.165771 0.705041
vt 0.165771 0.921446
vt 0.082956 0.705041
vt 0.082956 0.921446
vt 0.000142 0.705042
vt 0.000142 0.921446
vt 0.662939 0.846414
vt 0.662939 0.763600
vt 0.721497 0.904972
vt 0.721497 0.705041
vt 0.862870 0.846414
vt 0.804311 0.904973
vt 0.804311 0.705041
vt 0.862870 0.763600
vt 0.075076 0.018187
vt 0.174369 0.036611
vt 0.000142 0.145259
vt 0.269995 0.027490
vt 0.162895 0.146781
vt 0.369666 0.014365
vt 0.268204 0.141368
vt 0.476065 0.004165
vt 0.366420 0.135841
vt 0.589577 0.000142
vt 0.466439 0.133753
vt 0.709698 0.003134
vt 0.571514 0.137672
vt 0.836144 0.010055
vt 0.684414 0.149551
vt 0.970536 0.007683
vt 0.812281 0.171943
vt 0.000142 0.183917
vt 0.164908 0.171777
vt 0.270132 0.163275
vt 0.367767 0.157296
vt 0.466705 0.155919
vt 0.570257 0.161164
vt 0.681174 0.175241
vt 0.999858 0.214529
vt 0.806336 0.201883
vt 0.095350 0.358697
vt 0.181852 0.334946
vt 0.269790 0.313156
vt 0.356825 0.300407
vt 0.444970 0.297007
vt 0.536218 0.303006
vt 0.632842 0.318193
vt 0.986401 0.257928
vt 0.738201 0.341925
vt 0.098829 0.371094
vt 0.185234 0.348750
vt 0.272081 0.326058
vt 0.357733 0.313251
vt 0.444485 0.310110
vt 0.534332 0.316677
vt 0.629590 0.332853
vt 0.842771 0.379870
vt 0.733074 0.358419
vt 0.077414 0.465440
vt 0.192953 0.432732
vt 0.276258 0.412131
vt 0.352846 0.400823
vt 0.428339 0.399610
vt 0.505532 0.409621
vt 0.587313 0.432510
vt 0.837527 0.394866
vt 0.679153 0.472097
vt 0.088398 0.500625
vt 0.200959 0.456105
vt 0.281325 0.432870
vt 0.355091 0.420812
vt 0.427621 0.419734
vt 0.501542 0.430530
vt 0.579483 0.455107
vt 0.818912 0.549906
vt 0.666365 0.498182
vt 0.144010 0.562962
vt 0.222587 0.506503
vt 0.292312 0.478262
vt 0.358529 0.464131
vt 0.423736 0.462617
vt 0.489652 0.474245
vt 0.558100 0.500973
vt 0.791623 0.588285
vt 0.631691 0.547705
vt 0.181947 0.584665
vt 0.238926 0.538842
vt 0.299649 0.508197
vt 0.359826 0.492452
vt 0.419352 0.490134
vt 0.479100 0.501555
vt 0.540146 0.528506
vt 0.703383 0.632645
vt 0.604035 0.574471
vt 0.209503 0.619054
vt 0.262910 0.577712
vt 0.312590 0.545514
vt 0.363882 0.528081
vt 0.414891 0.524965
vt 0.465360 0.536080
vt 0.514733 0.563108
vt 0.660028 0.644340
vt 0.563087 0.610253
vt 0.213570 0.634582
vt 0.270559 0.588609
vt 0.318272 0.557318
vt 0.366233 0.540039
vt 0.413838 0.536912
vt 0.460643 0.547838
vt 0.505551 0.574426
vt 0.615355 0.680865
vt 0.547767 0.621679
vt 0.306653 0.679924
vt 0.324196 0.636338
vt 0.349434 0.605146
vt 0.379149 0.588943
vt 0.410431 0.585597
vt 0.440848 0.594612
vt 0.467077 0.616412
vt 0.599597 0.704758
vt 0.485004 0.652818
vt 0.404197 0.650962
vt 0.401052 0.648095
vt 0.401400 0.644665
vt 0.403255 0.642549
vt 0.405719 0.642128
vt 0.407810 0.643613
vt 0.409062 0.646185
vt 0.485090 0.702739
vt 0.408195 0.649395
vt 0.662655 0.921446
vn -0.382683 0.000000 0.923880
vn -0.923879 0.000000 0.382684
vn -0.923880 0.000000 -0.382683
vn -0.382684 0.000000 -0.923879
vn 0.382683 0.000000 -0.923880
vn 0.923880 0.000000 -0.382683
vn 0.923880 0.000000 0.382683
vn 0.382683 0.000000 0.923880
vn 0.000000 -1.000000 0.000000
vn 0.182143 -0.879465 0.439733
vn 0.439733 -0.879465 0.182143
vn 0.439733 -0.879465 -0.182143
vn 0.182143 -0.879465 -0.439733
vn -0.182143 -0.879465 -0.439732
vn -0.439733 -0.879465 -0.182143
vn -0.439732 -0.879465 0.182144
vn -0.182143 -0.879465 0.439733
vn 0.923879 0.000000 0.382684
vn 0.923879 0.000000 -0.382684
vn -0.923879 0.000000 0.382685
vn 0.067939 0.984115 0.164019
vn 0.164019 0.984115 0.067939
vn 0.164019 0.984115 -0.067939
vn 0.067939 0.984115 -0.164019
vn -0.067939 0.984115 -0.164020
vn -0.164019 0.984115 -0.067939
vn -0.164019 0.984115 0.067939
vn -0.067939 0.984115 0.164019
vn 0.382684 0.000000 0.923879
vn -0.000000 -1.000000 -0.000001
vn -0.000001 -1.000000 0.000000
vn -0.000000 -1.000000 0.000001
vn 0.000001 -1.000000 0.000001
vn 0.000001 -1.000000 0.000000
vn 0.256314 0.742557 0.618799
vn 0.618798 0.742558 0.256314
vn 0.618798 0.742558 -0.256314
vn 0.256315 0.742558 -0.618797
vn -0.256315 0.742557 -0.618798
vn -0.618798 0.742558 -0.256314
vn -0.618798 0.742557 0.256315
vn -0.256314 0.742558 0.618798
vn 0.000000 1.000000 -0.000002
vn 0.000000 1.000000 0.000000
vn 0.000000 -1.000000 0.000005
vn 0.000000 -1.000000 -0.000005
vn 0.288829 0.656016 0.697296
vn 0.697296 0.656015 0.288830
vn 0.697296 0.656016 -0.288829
vn 0.288829 0.656016 -0.697295
vn -0.288830 0.656016 -0.697295
vn -0.697296 0.656016 -0.288829
vn -0.697295 0.656016 0.288830
vn -0.288829 0.656015 0.697296
vn 0.334069 0.487780 0.806516
vn 0.806516 0.487781 0.334069
vn 0.806516 0.487781 -0.334069
vn 0.334069 0.487781 -0.806516
vn -0.334070 0.487781 -0.806515
vn -0.806516 0.487781 -0.334069
vn -0.806515 0.487781 0.334071
vn -0.334069 0.487781 0.806516
vn 0.382684 0.000000 0.923880
vn 0.439732 -0.879465 -0.182143
vn 0.182143 -0.879465 -0.439732
vn 0.382684 0.000000 -0.923879
vn -0.923880 0.000000 -0.382682
vn 0.164019 0.984115 0.067940
vn -0.067939 0.984115 -0.164019
vn -0.164019 0.984115 -0.067938
vn -0.382683 0.000000 -0.923880
vn -0.923880 0.000000 0.382683
vn 0.923880 0.000000 0.382684
vn 0.256315 0.742557 0.618798
vn 0.618798 0.742557 0.256315
vn 0.256314 0.742557 -0.618798
vn -0.256315 0.742558 -0.618797
vn -0.618798 0.742558 0.256315
vn 0.000000 1.000000 0.000001
vn 0.000000 1.000000 -0.000001
vn 0.000000 1.000000 0.000003
vn 0.000000 -1.000000 0.000002
vn 0.288829 0.656016 0.697295
vn 0.697296 0.656016 0.288828
vn 0.697295 0.656016 -0.288829
vn -0.288830 0.656015 -0.697296
vn -0.697296 0.656016 -0.288827
vn -0.697295 0.656016 0.288829
vn 0.334071 0.487785 0.806512
vn 0.806517 0.487782 0.334065
vn 0.806514 0.487781 -0.334073
vn 0.334069 0.487782 -0.806515
vn -0.334072 0.487784 -0.806513
vn -0.806515 0.487781 -0.334070
vn -0.806516 0.487781 0.334068
vn -0.334067 0.487781 0.806516
vn 0.000000 1.000000 0.000010
vn 0.000000 1.000000 -0.000014
vn 0.000000 1.000000 0.000065
usemtl TreeMaterial
s off
f 14/1/1 1/2/1 3/3/1
f 12/4/2 14/1/2 5/5/2
f 10/6/3 12/4/3 7/7/3
f 8/8/4 10/6/4 9/9/4
f 6/10/5 8/8/5 11/11/5
f 4/12/6 6/10/6 13/13/6
f 2/14/7 4/12/7 15/15/7
f 1/16/8 2/14/8 16/17/8
f 4/18/9 2/19/9 6/20/9
f 2/19/9 1/21/9 6/20/9
f 10/22/9 8/23/9 14/24/9
f 12/25/9 10/22/9 14/24/9
f 16/26/10 15/27/10 24/28/10
f 15/27/11 13/29/11 23/30/11
f 13/29/12 11/31/12 22/32/12
f 11/31/13 9/33/13 21/34/13
f 9/33/14 7/35/14 20/36/14
f 7/35/15 5/37/15 19/38/15
f 5/37/16 3/39/16 18/40/16
f 3/39/17 16/41/17 17/42/17
f 24/28/8 23/30/8 32/43/8
f 23/30/18 22/32/18 31/44/18
f 22/32/19 21/34/19 30/45/19
f 21/34/5 20/36/5 29/46/5
f 20/36/4 19/38/4 28/47/4
f 19/38/3 18/40/3 27/48/3
f 18/40/20 17/42/20 26/49/20
f 17/42/1 24/50/1 25/51/1
f 32/43/21 31/44/21 40/52/21
f 31/44/22 30/45/22 39/53/22
f 30/45/23 29/46/23 38/54/23
f 29/46/24 28/47/24 37/55/24
f 28/47/25 27/48/25 36/56/25
f 27/48/26 26/49/26 35/57/26
f 26/49/27 25/51/27 34/58/27
f 25/51/28 32/59/28 33/60/28
f 40/52/29 39/53/29 48/61/29
f 39/53/7 38/54/7 47/62/7
f 38/54/6 37/55/6 46/63/6
f 37/55/5 36/56/5 45/64/5
f 36/56/4 35/57/4 44/65/4
f 35/57/3 34/58/3 43/66/3
f 34/58/20 33/60/20 42/67/20
f 33/60/1 40/68/1 41/69/1
f 48/61/30 47/62/30 56/70/30
f 47/62/31 46/63/31 55/71/31
f 46/63/31 45/64/31 54/72/31
f 45/64/32 44/65/32 53/73/32
f 44/65/32 43/66/32 52/74/32
f 43/66/33 42/67/33 51/75/33
f 42/67/34 41/69/34 50/76/34
f 41/69/9 48/77/9 49/78/9
f 56/70/8 55/71/8 64/79/8
f 55/71/18 54/72/18 63/80/18
f 54/72/6 53/73/6 62/81/6
f 53/73/5 52/74/5 61/82/5
f 52/74/4 51/75/4 60/83/4
f 51/75/3 50/76/3 59/84/3
f 50/76/20 49/78/20 58/85/20
f 49/78/1 56/86/1 57/87/1
f 64/79/35 63/80/35 72/88/35
f 63/80/36 62/81/36 71/89/36
f 62/81/37 61/82/37 70/90/37
f 61/82/38 60/83/38 69/91/38
f 60/83/39 59/84/39 68/92/39
f 59/84/40 58/85/40 67/93/40
f 58/85/41 57/87/41 66/94/41
f 57/87/42 64/95/42 65/96/42
f 72/88/43 71/89/43 80/97/43
f 71/89/44 70/90/44 79/98/44
f 70/90/44 69/91/44 78/99/44
f 69/91/44 68/92/44 77/100/44
f 68/92/44 67/93/44 76/101/44
f 67/93/44 66/94/44 75/102/44
f 66/94/44 65/96/44 74/103/44
f 65/96/44 72/104/44 73/105/44
f 80/97/8 79/98/8 88/106/8
f 79/98/7 78/99/7 87/107/7
f 78/99/6 77/100/6 86/108/6
f 77/100/5 76/101/5 85/109/5
f 76/101/4 75/102/4 84/110/4
f 75/102/3 74/103/3 83/111/3
f 74/103/20 73/105/20 82/112/20
f 73/105/1 80/113/1 81/114/1
f 88/106/45 87/107/45 96/115/45
f 87/107/9 86/108/9 95/116/9
f 86/108/9 85/109/9 94/117/9
f 85/109/9 84/110/9 93/118/9
f 84/110/9 83/111/9 92/119/9
f 83/111/9 82/112/9 91/120/9
f 82/112/9 81/114/9 90/121/9
f 81/114/46 88/122/46 89/123/46
f 96/115/47 95/116/47 104/124/47
f 95/116/48 94/117/48 103/125/48
f 94/117/49 93/118/49 102/126/49
f 93/118/50 92/119/50 101/127/50
f 92/119/51 91/120/51 100/128/51
f 91/120/52 90/121/52 99/129/52
f 90/121/53 89/123/53 98/130/53
f 89/123/54 96/131/54 97/132/54
f 104/124/55 103/125/55 112/133/55
f 103/125/56 102/126/56 111/134/56
f 102/126/57 101/127/57 110/135/57
f 101/127/58 100/128/58 109/136/58
f 100/128/59 99/129/59 108/137/59
f 99/129/60 98/130/60 107/138/60
f 98/130/61 97/132/61 106/139/61
f 97/132/62 104/140/62 105/141/62
f 111/134/44 110/135/44 109/136/44
f 1/2/1 16/142/1 3/3/1
f 14/1/2 3/3/2 5/5/2
f 12/4/3 5/5/3 7/7/3
f 10/6/4 7/7/4 9/9/4
f 8/8/5 9/9/5 11/11/5
f 6/10/6 11/11/6 13/13/6
f 4/12/7 13/13/7 15/15/7
f 2/14/63 15/15/63 16/17/63
f 1/21/9 8/23/9 6/20/9
f 8/23/9 1/21/9 14/24/9
f 15/27/10 23/30/10 24/28/10
f 13/29/11 22/32/11 23/30/11
f 11/31/64 21/34/64 22/32/64
f 9/33/65 20/36/65 21/34/65
f 7/35/14 19/38/14 20/36/14
f 5/37/15 18/40/15 19/38/15
f 3/39/16 17/42/16 18/40/16
f 16/41/17 24/50/17 17/42/17
f 23/30/29 31/44/29 32/43/29
f 22/32/7 30/45/7 31/44/7
f 21/34/6 29/46/6 30/45/6
f 20/36/66 28/47/66 29/46/66
f 19/38/4 27/48/4 28/47/4
f 18/40/67 26/49/67 27/48/67
f 17/42/2 25/51/2 26/49/2
f 24/50/1 32/59/1 25/51/1
f 31/44/21 39/53/21 40/52/21
f 30/45/68 38/54/68 39/53/68
f 29/46/23 37/55/23 38/54/23
f 28/47/24 36/56/24 37/55/24
f 27/48/69 35/57/69 36/56/69
f 26/49/70 34/58/70 35/57/70
f 25/51/27 33/60/27 34/58/27
f 32/59/28 40/68/28 33/60/28
f 39/53/8 47/62/8 48/61/8
f 38/54/7 46/63/7 47/62/7
f 37/55/6 45/64/6 46/63/6
f 36/56/66 44/65/66 45/64/66
f 35/57/71 43/66/71 44/65/71
f 34/58/3 42/67/3 43/66/3
f 33/60/72 41/69/72 42/67/72
f 40/68/1 48/77/1 41/69/1
f 47/62/30 55/71/30 56/70/30
f 46/63/31 54/72/31 55/71/31
f 45/64/31 53/73/31 54/72/31
f 44/65/32 52/74/32 53/73/32
f 43/66/32 51/75/32 52/74/32
f 42/67/34 50/76/34 51/75/34
f 41/69/34 49/78/34 50/76/34
f 48/77/9 56/86/9 49/78/9
f 55/71/8 63/80/8 64/79/8
f 54/72/73 62/81/73 63/80/73
f 53/73/6 61/82/6 62/81/6
f 52/74/66 60/83/66 61/82/66
f 51/75/4 59/84/4 60/83/4
f 50/76/3 58/85/3 59/84/3
f 49/78/2 57/87/2 58/85/2
f 56/86/1 64/95/1 57/87/1
f 63/80/74 71/89/74 72/88/74
f 62/81/75 70/90/75 71/89/75
f 61/82/37 69/91/37 70/90/37
f 60/83/76 68/92/76 69/91/76
f 59/84/77 67/93/77 68/92/77
f 58/85/40 66/94/40 67/93/40
f 57/87/78 65/96/78 66/94/78
f 64/95/42 72/104/42 65/96/42
f 71/89/44 79/98/44 80/97/44
f 70/90/79 78/99/79 79/98/79
f 69/91/80 77/100/80 78/99/80
f 68/92/44 76/101/44 77/100/44
f 67/93/44 75/102/44 76/101/44
f 66/94/79 74/103/79 75/102/79
f 65/96/44 73/105/44 74/103/44
f 72/104/81 80/113/81 73/105/81
f 79/98/29 87/107/29 88/106/29
f 78/99/7 86/108/7 87/107/7
f 77/100/6 85/109/6 86/108/6
f 76/101/66 84/110/66 85/109/66
f 75/102/4 83/111/4 84/110/4
f 74/103/3 82/112/3 83/111/3
f 73/105/2 81/114/2 82/112/2
f 80/113/1 88/122/1 81/114/1
f 87/107/9 95/116/9 96/115/9
f 86/108/9 94/117/9 95/116/9
f 85/109/9 93/118/9 94/117/9
f 84/110/9 92/119/9 93/118/9
f 83/111/9 91/120/9 92/119/9
f 82/112/9 90/121/9 91/120/9
f 81/114/82 89/123/82 90/121/82
f 88/122/46 96/131/46 89/123/46
f 95/116/83 103/125/83 104/124/83
f 94/117/84 102/126/84 103/125/84
f 93/118/85 101/127/85 102/126/85
f 92/119/50 100/128/50 101/127/50
f 91/120/86 99/129/86 100/128/86
f 90/121/87 98/130/87 99/129/87
f 89/123/88 97/132/88 98/130/88
f 96/131/54 104/140/54 97/132/54
f 103/125/89 111/134/89 112/133/89
f 102/126/90 110/135/90 111/134/90
f 101/127/91 109/136/91 110/135/91
f 100/128/92 108/137/92 109/136/92
f 99/129/93 107/138/93 108/137/93
f 98/130/94 106/139/94 107/138/94
f 97/132/95 105/141/95 106/139/95
f 104/140/96 112/133/96 105/141/96
f 111/134/44 109/136/44 108/137/44
f 111/134/97 108/137/97 107/138/97
f 111/134/98 107/138/98 106/139/98
f 112/133/99 111/134/99 105/141/99
f 111/134/44 106/139/44 105/141/44
